<?xml version="1.0" standalone="no"?>
<!DOCTYPE svg PUBLIC "-//W3C//DTD SVG 1.1//EN"
"http://www.w3.org/Graphics/SVG/1.1/DTD/svg11.dtd">

<svg width="517" height="356" view_box="0 0 517 356"
xmlns="http://www.w3.org/2000/svg"
xmlns:link="http://www.w3.org/1999/xlink">\n\n<desc>Généré par Mocodo 2.3.7 le Tue, 22 Feb 2022 08:24:22</desc>

<rect id="frame" x="0" y="0" width="517" height="356" fill="#ffffbf" stroke="none" stroke-width="0"/>

<!-- Association détient -->
<line x1="260" y1="296" x2="162" y2="296" stroke="#66bd63" stroke-width="2"/>
<text x="199" y="313.0" fill="#d73027" font-family="Verdana" font-size="12">0,N</text>
<line x1="55" y1="296" x2="162" y2="296" stroke="#66bd63" stroke-width="2"/>
<text x="106" y="313.0" fill="#d73027" font-family="Verdana" font-size="12">0,N</text>
<g id="association-détient">
	<path d="M 177 271 a 14 14 90 0 1 14 14 V 296 h -58 V 285 a 14 14 90 0 1 14 -14" fill="#a6d96a" stroke="#a6d96a" stroke-width="0"/>
	<path d="M 191 296.0 v 11 a 14 14 90 0 1 -14 14 H 147 a 14 14 90 0 1 -14 -14 V 296.0 H 58" fill="#d9ef8b" stroke="#d9ef8b" stroke-width="0"/>
	<rect x="133" y="271" width="58" height="50" fill="none" rx="14" stroke="#66bd63" stroke-width="2"/>
	<line x1="133" y1="296" x2="191" y2="296" stroke="#66bd63" stroke-width="1"/>
	<text x="140" y="288.7" fill="#000000" font-family="Verdana" font-size="12">détient</text>
</g>

<!-- Association publie -->
<line x1="260" y1="94" x2="162" y2="94" stroke="#66bd63" stroke-width="2"/>
<text x="194" y="111.0" fill="#d73027" font-family="Verdana" font-size="12">1,1</text>
<line x1="55" y1="94" x2="162" y2="94" stroke="#66bd63" stroke-width="2"/>
<text x="106" y="111.0" fill="#d73027" font-family="Verdana" font-size="12">0,N</text>
<g id="association-publie">
	<path d="M 174 69 a 14 14 90 0 1 14 14 V 94 h -52 V 83 a 14 14 90 0 1 14 -14" fill="#a6d96a" stroke="#a6d96a" stroke-width="0"/>
	<path d="M 188 94.0 v 11 a 14 14 90 0 1 -14 14 H 150 a 14 14 90 0 1 -14 -14 V 94.0 H 52" fill="#d9ef8b" stroke="#d9ef8b" stroke-width="0"/>
	<rect x="136" y="69" width="52" height="50" fill="none" rx="14" stroke="#66bd63" stroke-width="2"/>
	<line x1="136" y1="94" x2="188" y2="94" stroke="#66bd63" stroke-width="1"/>
	<text x="143" y="86.7" fill="#000000" font-family="Verdana" font-size="12">publie</text>
</g>

<!-- Association possède -->
<line x1="468" y1="94" x2="364" y2="94" stroke="#66bd63" stroke-width="2"/>
<text x="401" y="111.0" fill="#d73027" font-family="Verdana" font-size="12">0,N</text>
<line x1="260" y1="94" x2="364" y2="94" stroke="#66bd63" stroke-width="2"/>
<text x="305" y="111.0" fill="#d73027" font-family="Verdana" font-size="12">1,1</text>
<g id="association-possède">
	<path d="M 382 69 a 14 14 90 0 1 14 14 V 94 h -64 V 83 a 14 14 90 0 1 14 -14" fill="#a6d96a" stroke="#a6d96a" stroke-width="0"/>
	<path d="M 396 94.0 v 11 a 14 14 90 0 1 -14 14 H 346 a 14 14 90 0 1 -14 -14 V 94.0 H 64" fill="#d9ef8b" stroke="#d9ef8b" stroke-width="0"/>
	<rect x="332" y="69" width="64" height="50" fill="none" rx="14" stroke="#66bd63" stroke-width="2"/>
	<line x1="332" y1="94" x2="396" y2="94" stroke="#66bd63" stroke-width="1"/>
	<text x="339" y="86.7" fill="#000000" font-family="Verdana" font-size="12">possède</text>
</g>

<!-- Association marqué -->
<line x1="260" y1="94" x2="260" y2="212" stroke="#66bd63" stroke-width="2"/>
<text x="265.0" y="179" fill="#d73027" font-family="Verdana" font-size="12">0,N</text>
<line x1="260" y1="296" x2="260" y2="212" stroke="#66bd63" stroke-width="2"/>
<text x="265.0" y="254" fill="#d73027" font-family="Verdana" font-size="12">0,N</text>
<g id="association-marqué">
	<path d="M 277 187 a 14 14 90 0 1 14 14 V 212 h -62 V 201 a 14 14 90 0 1 14 -14" fill="#a6d96a" stroke="#a6d96a" stroke-width="0"/>
	<path d="M 291 212.0 v 11 a 14 14 90 0 1 -14 14 H 243 a 14 14 90 0 1 -14 -14 V 212.0 H 62" fill="#d9ef8b" stroke="#d9ef8b" stroke-width="0"/>
	<rect x="229" y="187" width="62" height="50" fill="none" rx="14" stroke="#66bd63" stroke-width="2"/>
	<line x1="229" y1="212" x2="291" y2="212" stroke="#66bd63" stroke-width="1"/>
	<text x="236" y="204.7" fill="#000000" font-family="Verdana" font-size="12">marqué</text>
</g>

<!-- Entity Oeuvre -->
<g id="entity-Oeuvre">
	<g id="frame-Oeuvre">
		<rect x="220" y="26" width="80" height="25" fill="#fdae61" stroke="#fdae61" stroke-width="0"/>
		<rect x="220" y="51.0" width="80" height="111" fill="#fee08b" stroke="#fee08b" stroke-width="0"/>
		<rect x="220" y="26" width="80" height="136" fill="none" stroke="#f46d43" stroke-width="2"/>
		<line x1="220" y1="51" x2="300" y2="51" stroke="#f46d43" stroke-width="1"/>
	</g>
	<text x="237" y="43.7" fill="#000000" font-family="Verdana" font-size="12">Oeuvre</text>
	<text x="225" y="68.7" fill="#000000" font-family="Verdana" font-size="12">idOeuvre</text>
	<line x1="225" y1="71" x2="280" y2="71" stroke="#000000" stroke-width="1"/>
	<text x="225" y="85.7" fill="#000000" font-family="Verdana" font-size="12">titre</text>
	<text x="225" y="102.8" fill="#000000" font-family="Verdana" font-size="12">description</text>
	<text x="225" y="119.8" fill="#000000" font-family="Verdana" font-size="12">dimension</text>
	<text x="225" y="136.8" fill="#000000" font-family="Verdana" font-size="12">photos</text>
	<text x="225" y="153.8" fill="#000000" font-family="Verdana" font-size="12">idCatégorie</text>
</g>

<!-- Entity Artiste -->
<g id="entity-Artiste">
	<g id="frame-Artiste">
		<rect x="9" y="9" width="92" height="25" fill="#fdae61" stroke="#fdae61" stroke-width="0"/>
		<rect x="9" y="34.0" width="92" height="145" fill="#fee08b" stroke="#fee08b" stroke-width="0"/>
		<rect x="9" y="9" width="92" height="170" fill="none" stroke="#f46d43" stroke-width="2"/>
		<line x1="9" y1="34" x2="101" y2="34" stroke="#f46d43" stroke-width="1"/>
	</g>
	<text x="35" y="26.7" fill="#000000" font-family="Verdana" font-size="12">Artiste</text>
	<text x="14" y="51.7" fill="#000000" font-family="Verdana" font-size="12">idArtiste</text>
	<line x1="14" y1="54" x2="65" y2="54" stroke="#000000" stroke-width="1"/>
	<text x="14" y="68.7" fill="#000000" font-family="Verdana" font-size="12">prénom</text>
	<text x="14" y="85.7" fill="#000000" font-family="Verdana" font-size="12">nom</text>
	<text x="14" y="102.8" fill="#000000" font-family="Verdana" font-size="12">pseudo</text>
	<text x="14" y="119.8" fill="#000000" font-family="Verdana" font-size="12">mot de passe</text>
	<text x="14" y="136.8" fill="#000000" font-family="Verdana" font-size="12">email</text>
	<text x="14" y="153.8" fill="#000000" font-family="Verdana" font-size="12">biographie</text>
	<text x="14" y="170.8" fill="#000000" font-family="Verdana" font-size="12">image</text>
</g>

<!-- Entity Catégorie -->
<g id="entity-Catégorie">
	<g id="frame-Catégorie">
		<rect x="428" y="60" width="80" height="25" fill="#fdae61" stroke="#fdae61" stroke-width="0"/>
		<rect x="428" y="85.0" width="80" height="43" fill="#fee08b" stroke="#fee08b" stroke-width="0"/>
		<rect x="428" y="60" width="80" height="68" fill="none" stroke="#f46d43" stroke-width="2"/>
		<line x1="428" y1="85" x2="508" y2="85" stroke="#f46d43" stroke-width="1"/>
	</g>
	<text x="438" y="77.7" fill="#000000" font-family="Verdana" font-size="12">Catégorie</text>
	<text x="433" y="102.8" fill="#000000" font-family="Verdana" font-size="12">idCatégorie</text>
	<line x1="433" y1="105" x2="503" y2="105" stroke="#000000" stroke-width="1"/>
	<text x="433" y="119.8" fill="#000000" font-family="Verdana" font-size="12">name</text>
</g>

<!-- Entity Favoris -->
<g id="entity-Favoris">
	<g id="frame-Favoris">
		<rect x="226" y="262" width="68" height="25" fill="#fdae61" stroke="#fdae61" stroke-width="0"/>
		<rect x="226" y="287.0" width="68" height="43" fill="#fee08b" stroke="#fee08b" stroke-width="0"/>
		<rect x="226" y="262" width="68" height="68" fill="none" stroke="#f46d43" stroke-width="2"/>
		<line x1="226" y1="287" x2="294" y2="287" stroke="#f46d43" stroke-width="1"/>
	</g>
	<text x="238" y="279.7" fill="#000000" font-family="Verdana" font-size="12">Favoris</text>
	<text x="231" y="304.8" fill="#000000" font-family="Verdana" font-size="12">idAbonné</text>
	<line x1="231" y1="307" x2="288" y2="307" stroke="#000000" stroke-width="1"/>
	<text x="231" y="321.8" fill="#000000" font-family="Verdana" font-size="12">idOeuvre</text>
</g>

<!-- Entity Abonné -->
<g id="entity-Abonné">
	<g id="frame-Abonné">
		<rect x="9" y="245" width="92" height="25" fill="#fdae61" stroke="#fdae61" stroke-width="0"/>
		<rect x="9" y="270.0" width="92" height="77" fill="#fee08b" stroke="#fee08b" stroke-width="0"/>
		<rect x="9" y="245" width="92" height="102" fill="none" stroke="#f46d43" stroke-width="2"/>
		<line x1="9" y1="270" x2="101" y2="270" stroke="#f46d43" stroke-width="1"/>
	</g>
	<text x="32" y="262.7" fill="#000000" font-family="Verdana" font-size="12">Abonné</text>
	<text x="14" y="287.7" fill="#000000" font-family="Verdana" font-size="12">idAbonné</text>
	<line x1="14" y1="290" x2="71" y2="290" stroke="#000000" stroke-width="1"/>
	<text x="14" y="304.8" fill="#000000" font-family="Verdana" font-size="12">prénom</text>
	<text x="14" y="321.8" fill="#000000" font-family="Verdana" font-size="12">nom</text>
	<text x="14" y="338.8" fill="#000000" font-family="Verdana" font-size="12">mot de passe</text>
</g>
</svg>