<?xml version="1.0" standalone="no"?>
<!DOCTYPE svg PUBLIC "-//W3C//DTD SVG 1.1//EN"
"http://www.w3.org/Graphics/SVG/1.1/DTD/svg11.dtd">

<svg width="962" height="915" view_box="0 0 962 915"
xmlns="http://www.w3.org/2000/svg"
xmlns:link="http://www.w3.org/1999/xlink">\n\n<desc>Généré par Mocodo 2.3.7 le Tue, 16 Jun 2020 02:17:17</desc>

<rect id="frame" x="0" y="0" width="962" height="915" fill="#ffffff" stroke="none" stroke-width="0"/>

<!-- Association rédige -->
<line x1="494" y1="111" x2="645" y2="111" stroke="#878787" stroke-width="2"/>
<text x="561" y="128.0" fill="#b2182b" font-family="Verdana" font-size="12">0,N</text>
<path d="M857 280 C 806.769117747 289.669721223 736.10245108 233.33638789 645 111" fill="none" stroke="#878787" stroke-width="2"/>
<text x="774" y="244.949521759" fill="#b2182b" font-family="Verdana" font-size="12">0,1</text>
<g id="association-rédige">
	<path d="M 658 86 a 14 14 90 0 1 14 14 V 111 h -54 V 100 a 14 14 90 0 1 14 -14" fill="#bababa" stroke="#bababa" stroke-width="0"/>
	<path d="M 672 111.0 v 11 a 14 14 90 0 1 -14 14 H 632 a 14 14 90 0 1 -14 -14 V 111.0 H 54" fill="#e0e0e0" stroke="#e0e0e0" stroke-width="0"/>
	<rect x="618" y="86" width="54" height="50" fill="none" rx="14" stroke="#878787" stroke-width="2"/>
	<line x1="618" y1="111" x2="672" y2="111" stroke="#878787" stroke-width="1"/>
	<text x="625" y="103.7" fill="#000000" font-family="Verdana" font-size="12">rédige</text>
</g>

<!-- Association répond -->
<path d="M857 280 C 815.666666667 173.0 815.666666667 116.666666667 857 111" fill="none" stroke="#878787" stroke-width="2"/>
<text x="832.0" y="162" fill="#b2182b" font-family="Verdana" font-size="12">1,1</text>
<path d="M857 280 C 899.666666667 173.0 899.666666667 116.666666667 857 111" fill="none" stroke="#878787" stroke-width="2"/>
<text x="861.0" y="162" fill="#b2182b" font-family="Verdana" font-size="12">0,N</text>
<g id="association-répond">
	<path d="M 872 86 a 14 14 90 0 1 14 14 V 111 h -58 V 100 a 14 14 90 0 1 14 -14" fill="#bababa" stroke="#bababa" stroke-width="0"/>
	<path d="M 886 111.0 v 11 a 14 14 90 0 1 -14 14 H 842 a 14 14 90 0 1 -14 -14 V 111.0 H 58" fill="#e0e0e0" stroke="#e0e0e0" stroke-width="0"/>
	<rect x="828" y="86" width="58" height="50" fill="none" rx="14" stroke="#878787" stroke-width="2"/>
	<line x1="828" y1="111" x2="886" y2="111" stroke="#878787" stroke-width="1"/>
	<text x="835" y="103.7" fill="#000000" font-family="Verdana" font-size="12">répond</text>
</g>

<!-- Association écrit -->
<line x1="494" y1="111" x2="494" y2="280" stroke="#878787" stroke-width="2"/>
<text x="499.0" y="230" fill="#b2182b" font-family="Verdana" font-size="12">0,N</text>
<line x1="494" y1="525" x2="494" y2="280" stroke="#878787" stroke-width="2"/>
<text x="468.0" y="339" fill="#b2182b" font-family="Verdana" font-size="12">1,1</text>
<g id="association-écrit">
	<path d="M 501 255 a 14 14 90 0 1 14 14 V 280 h -42 V 269 a 14 14 90 0 1 14 -14" fill="#bababa" stroke="#bababa" stroke-width="0"/>
	<path d="M 515 280.0 v 11 a 14 14 90 0 1 -14 14 H 487 a 14 14 90 0 1 -14 -14 V 280.0 H 42" fill="#e0e0e0" stroke="#e0e0e0" stroke-width="0"/>
	<rect x="473" y="255" width="42" height="50" fill="none" rx="14" stroke="#878787" stroke-width="2"/>
	<line x1="473" y1="280" x2="515" y2="280" stroke="#878787" stroke-width="1"/>
	<text x="480" y="272.7" fill="#000000" font-family="Verdana" font-size="12">écrit</text>
</g>

<!-- Association complète -->
<line x1="494" y1="525" x2="494" y2="779" stroke="#878787" stroke-width="2"/>
<text x="499.0" y="720" fill="#b2182b" font-family="Verdana" font-size="12">0,N</text>
<line x1="352" y1="779" x2="494" y2="779" stroke="#878787" stroke-width="2"/>
<text x="432" y="796.0" fill="#b2182b" font-family="Verdana" font-size="12">1,1</text>
<g id="association-complète">
	<path d="M 515 754 a 14 14 90 0 1 14 14 V 779 h -70 V 768 a 14 14 90 0 1 14 -14" fill="#bababa" stroke="#bababa" stroke-width="0"/>
	<path d="M 529 779.0 v 11 a 14 14 90 0 1 -14 14 H 473 a 14 14 90 0 1 -14 -14 V 779.0 H 70" fill="#e0e0e0" stroke="#e0e0e0" stroke-width="0"/>
	<rect x="459" y="754" width="70" height="50" fill="none" rx="14" stroke="#878787" stroke-width="2"/>
	<line x1="459" y1="779" x2="529" y2="779" stroke="#878787" stroke-width="1"/>
	<text x="466" y="771.7" fill="#000000" font-family="Verdana" font-size="12">complète</text>
</g>

<!-- Association informe -->
<line x1="857" y1="280" x2="857" y2="525" stroke="#878787" stroke-width="2"/>
<text x="862.0" y="407" fill="#b2182b" font-family="Verdana" font-size="12">0,N</text>
<line x1="857" y1="779" x2="857" y2="525" stroke="#878787" stroke-width="2"/>
<text x="862.0" y="729" fill="#b2182b" font-family="Verdana" font-size="12">1,1</text>
<g id="association-informe">
	<path d="M 874 500 a 14 14 90 0 1 14 14 V 525 h -62 V 514 a 14 14 90 0 1 14 -14" fill="#bababa" stroke="#bababa" stroke-width="0"/>
	<path d="M 888 525.0 v 11 a 14 14 90 0 1 -14 14 H 840 a 14 14 90 0 1 -14 -14 V 525.0 H 62" fill="#e0e0e0" stroke="#e0e0e0" stroke-width="0"/>
	<rect x="826" y="500" width="62" height="50" fill="none" rx="14" stroke="#878787" stroke-width="2"/>
	<line x1="826" y1="525" x2="888" y2="525" stroke="#878787" stroke-width="1"/>
	<text x="833" y="517.7" fill="#000000" font-family="Verdana" font-size="12">informe</text>
</g>

<!-- Association renseigne -->
<line x1="494" y1="111" x2="352" y2="111" stroke="#878787" stroke-width="2"/>
<text x="405" y="128.0" fill="#b2182b" font-family="Verdana" font-size="12">0,N</text>
<line x1="352" y1="280" x2="352" y2="111" stroke="#878787" stroke-width="2"/>
<text x="357.0" y="230" fill="#b2182b" font-family="Verdana" font-size="12">1,1</text>
<g id="association-renseigne">
	<path d="M 375 86 a 14 14 90 0 1 14 14 V 111 h -74 V 100 a 14 14 90 0 1 14 -14" fill="#bababa" stroke="#bababa" stroke-width="0"/>
	<path d="M 389 111.0 v 11 a 14 14 90 0 1 -14 14 H 329 a 14 14 90 0 1 -14 -14 V 111.0 H 74" fill="#e0e0e0" stroke="#e0e0e0" stroke-width="0"/>
	<rect x="315" y="86" width="74" height="50" fill="none" rx="14" stroke="#878787" stroke-width="2"/>
	<line x1="315" y1="111" x2="389" y2="111" stroke="#878787" stroke-width="1"/>
	<text x="322" y="103.7" fill="#000000" font-family="Verdana" font-size="12">renseigne</text>
</g>

<!-- Association classe -->
<line x1="173" y1="525" x2="352" y2="525" stroke="#878787" stroke-width="2"/>
<text x="244" y="542.0" fill="#b2182b" font-family="Verdana" font-size="12">0,N</text>
<line x1="494" y1="525" x2="352" y2="525" stroke="#878787" stroke-width="2"/>
<text x="384" y="542.0" fill="#b2182b" font-family="Verdana" font-size="12">0,N</text>
<g id="association-classe">
	<path d="M 364 500 a 14 14 90 0 1 14 14 V 525 h -52 V 514 a 14 14 90 0 1 14 -14" fill="#bababa" stroke="#bababa" stroke-width="0"/>
	<path d="M 378 525.0 v 11 a 14 14 90 0 1 -14 14 H 340 a 14 14 90 0 1 -14 -14 V 525.0 H 52" fill="#e0e0e0" stroke="#e0e0e0" stroke-width="0"/>
	<rect x="326" y="500" width="52" height="50" fill="none" rx="14" stroke="#878787" stroke-width="2"/>
	<line x1="326" y1="525" x2="378" y2="525" stroke="#878787" stroke-width="1"/>
	<text x="333" y="517.7" fill="#000000" font-family="Verdana" font-size="12">classe</text>
	<text x="333" y="542.8" fill="#000000" font-family="Verdana" font-size="12">ordre</text>
</g>

<!-- Association décrit -->
<line x1="173" y1="111" x2="42" y2="111" stroke="#878787" stroke-width="2"/>
<text x="73" y="128.0" fill="#b2182b" font-family="Verdana" font-size="12">1,1</text>
<line x1="42" y1="280" x2="42" y2="111" stroke="#878787" stroke-width="2"/>
<text x="47.0" y="221" fill="#b2182b" font-family="Verdana" font-size="12">0,N</text>
<g id="association-décrit">
	<path d="M 53 86 a 14 14 90 0 1 14 14 V 111 h -50 V 100 a 14 14 90 0 1 14 -14" fill="#bababa" stroke="#bababa" stroke-width="0"/>
	<path d="M 67 111.0 v 11 a 14 14 90 0 1 -14 14 H 31 a 14 14 90 0 1 -14 -14 V 111.0 H 50" fill="#e0e0e0" stroke="#e0e0e0" stroke-width="0"/>
	<rect x="17" y="86" width="50" height="50" fill="none" rx="14" stroke="#878787" stroke-width="2"/>
	<line x1="17" y1="111" x2="67" y2="111" stroke="#878787" stroke-width="1"/>
	<text x="24" y="103.7" fill="#000000" font-family="Verdana" font-size="12">décrit</text>
</g>

<!-- Association organise -->
<line x1="173" y1="525" x2="173" y2="280" stroke="#878787" stroke-width="2"/>
<text x="178.0" y="466" fill="#b2182b" font-family="Verdana" font-size="12">1,N</text>
<line x1="42" y1="280" x2="173" y2="280" stroke="#878787" stroke-width="2"/>
<text x="80" y="297.0" fill="#b2182b" font-family="Verdana" font-size="12">1,1</text>
<g id="association-organise">
	<path d="M 192 255 a 14 14 90 0 1 14 14 V 280 h -66 V 269 a 14 14 90 0 1 14 -14" fill="#bababa" stroke="#bababa" stroke-width="0"/>
	<path d="M 206 280.0 v 11 a 14 14 90 0 1 -14 14 H 154 a 14 14 90 0 1 -14 -14 V 280.0 H 66" fill="#e0e0e0" stroke="#e0e0e0" stroke-width="0"/>
	<rect x="140" y="255" width="66" height="50" fill="none" rx="14" stroke="#878787" stroke-width="2"/>
	<line x1="140" y1="280" x2="206" y2="280" stroke="#878787" stroke-width="1"/>
	<text x="147" y="272.7" fill="#000000" font-family="Verdana" font-size="12">organise</text>
</g>

<!-- Association commente -->
<path d="M494 525 C 541.309399625 371.319186039 591.642732958 289.652519372 645 280" fill="none" stroke="#878787" stroke-width="2"/>
<text x="582" y="346.238539247" fill="#b2182b" font-family="Verdana" font-size="12">0,N</text>
<line x1="857" y1="280" x2="645" y2="280" stroke="#878787" stroke-width="2"/>
<text x="774" y="297.0" fill="#b2182b" font-family="Verdana" font-size="12">1,1</text>
<g id="association-commente">
	<path d="M 671 255 a 14 14 90 0 1 14 14 V 280 h -80 V 269 a 14 14 90 0 1 14 -14" fill="#bababa" stroke="#bababa" stroke-width="0"/>
	<path d="M 685 280.0 v 11 a 14 14 90 0 1 -14 14 H 619 a 14 14 90 0 1 -14 -14 V 280.0 H 80" fill="#e0e0e0" stroke="#e0e0e0" stroke-width="0"/>
	<rect x="605" y="255" width="80" height="50" fill="none" rx="14" stroke="#878787" stroke-width="2"/>
	<line x1="605" y1="280" x2="685" y2="280" stroke="#878787" stroke-width="1"/>
	<text x="612" y="272.7" fill="#000000" font-family="Verdana" font-size="12">commente</text>
</g>

<!-- Association contient -->
<path d="M494 525 C 575.666666667 491.666666667 626.0 491.666666667 645 525" fill="none" stroke="#878787" stroke-width="2"/>
<text x="582" y="518.0" fill="#b2182b" font-family="Verdana" font-size="12">0,N</text>
<path d="M494 525 C 575.0 558.333333333 625.333333333 558.333333333 645 525" fill="none" stroke="#878787" stroke-width="2"/>
<text x="582" y="541.0" fill="#b2182b" font-family="Verdana" font-size="12">1,1</text>
<g id="association-contient">
	<path d="M 663 500 a 14 14 90 0 1 14 14 V 525 h -64 V 514 a 14 14 90 0 1 14 -14" fill="#bababa" stroke="#bababa" stroke-width="0"/>
	<path d="M 677 525.0 v 11 a 14 14 90 0 1 -14 14 H 627 a 14 14 90 0 1 -14 -14 V 525.0 H 64" fill="#e0e0e0" stroke="#e0e0e0" stroke-width="0"/>
	<rect x="613" y="500" width="64" height="50" fill="none" rx="14" stroke="#878787" stroke-width="2"/>
	<line x1="613" y1="525" x2="677" y2="525" stroke="#878787" stroke-width="1"/>
	<text x="620" y="517.7" fill="#000000" font-family="Verdana" font-size="12">contient</text>
</g>

<!-- Entity Utilisateur -->
<g id="entity-Utilisateur">
	<g id="frame-Utilisateur">
		<rect x="432" y="9" width="124" height="25" fill="#f4a582" stroke="#f4a582" stroke-width="0"/>
		<rect x="432" y="34.0" width="124" height="179" fill="#fddbc7" stroke="#fddbc7" stroke-width="0"/>
		<rect x="432" y="9" width="124" height="204" fill="none" stroke="#d6604d" stroke-width="2"/>
		<line x1="432" y1="34" x2="556" y2="34" stroke="#d6604d" stroke-width="1"/>
	</g>
	<text x="463" y="26.7" fill="#000000" font-family="Verdana" font-size="12">Utilisateur</text>
	<text x="437" y="51.7" fill="#000000" font-family="Verdana" font-size="12">id_utilisateur</text>
	<line x1="437" y1="54" x2="517" y2="54" stroke="#000000" stroke-width="1"/>
	<text x="437" y="68.7" fill="#000000" font-family="Verdana" font-size="12">identifiant</text>
	<text x="437" y="85.7" fill="#000000" font-family="Verdana" font-size="12">mot_de_passe</text>
	<text x="437" y="102.7" fill="#000000" font-family="Verdana" font-size="12">slug</text>
	<text x="437" y="119.8" fill="#000000" font-family="Verdana" font-size="12">email</text>
	<text x="437" y="136.8" fill="#000000" font-family="Verdana" font-size="12">url</text>
	<text x="437" y="153.8" fill="#000000" font-family="Verdana" font-size="12">date_d_inscription</text>
	<text x="437" y="170.8" fill="#000000" font-family="Verdana" font-size="12">statut</text>
	<text x="437" y="187.8" fill="#000000" font-family="Verdana" font-size="12">nom_d_affichage</text>
</g>

<!-- Entity Métadonnée_Commentaire -->
<g id="entity-Métadonnée_Commentaire">
	<g id="frame-Métadonnée_Commentaire">
		<rect x="761" y="737" width="192" height="25" fill="#f4a582" stroke="#f4a582" stroke-width="0"/>
		<rect x="761" y="762.0" width="192" height="59" fill="#fddbc7" stroke="#fddbc7" stroke-width="0"/>
		<rect x="761" y="737" width="192" height="84" fill="none" stroke="#d6604d" stroke-width="2"/>
		<line x1="761" y1="762" x2="953" y2="762" stroke="#d6604d" stroke-width="1"/>
	</g>
	<text x="775" y="754.7" fill="#000000" font-family="Verdana" font-size="12">Métadonnée_Commentaire</text>
	<text x="766" y="779.8" fill="#000000" font-family="Verdana" font-size="12">id_métadonnée_commentaire</text>
	<line x1="766" y1="782" x2="947" y2="782" stroke="#000000" stroke-width="1"/>
	<text x="766" y="796.8" fill="#000000" font-family="Verdana" font-size="12">clé</text>
	<text x="766" y="813.8" fill="#000000" font-family="Verdana" font-size="12">valeur</text>
</g>

<!-- Entity Option -->
<g id="entity-Option">
	<g id="frame-Option">
		<rect x="561" y="728" width="168" height="25" fill="#f4a582" stroke="#f4a582" stroke-width="0"/>
		<rect x="561" y="753.0" width="168" height="77" fill="#fddbc7" stroke="#fddbc7" stroke-width="0"/>
		<rect x="561" y="728" width="168" height="102" fill="none" stroke="#d6604d" stroke-width="2"/>
		<line x1="561" y1="753" x2="729" y2="753" stroke="#d6604d" stroke-width="1"/>
	</g>
	<text x="624" y="745.7" fill="#000000" font-family="Verdana" font-size="12">Option</text>
	<text x="566" y="770.7" fill="#000000" font-family="Verdana" font-size="12">id_option</text>
	<line x1="566" y1="773" x2="623" y2="773" stroke="#000000" stroke-width="1"/>
	<text x="566" y="787.8" fill="#000000" font-family="Verdana" font-size="12">nom</text>
	<text x="566" y="804.8" fill="#000000" font-family="Verdana" font-size="12">valeur</text>
	<text x="566" y="821.8" fill="#000000" font-family="Verdana" font-size="12">chargement_automatique</text>
</g>

<!-- Entity Commentaire -->
<g id="entity-Commentaire">
	<g id="frame-Commentaire">
		<rect x="800" y="170" width="114" height="25" fill="#f4a582" stroke="#f4a582" stroke-width="0"/>
		<rect x="800" y="195.0" width="114" height="195" fill="#fddbc7" stroke="#fddbc7" stroke-width="0"/>
		<rect x="800" y="170" width="114" height="220" fill="none" stroke="#d6604d" stroke-width="2"/>
		<line x1="800" y1="195" x2="914" y2="195" stroke="#d6604d" stroke-width="1"/>
	</g>
	<text x="816" y="187.7" fill="#000000" font-family="Verdana" font-size="12">Commentaire</text>
	<text x="805" y="212.7" fill="#000000" font-family="Verdana" font-size="12">id_commentaire</text>
	<line x1="805" y1="215" x2="904" y2="215" stroke="#000000" stroke-width="1"/>
	<text x="805" y="229.7" fill="#000000" font-family="Verdana" font-size="12">auteur</text>
	<text x="805" y="246.7" fill="#000000" font-family="Verdana" font-size="12">email_auteur</text>
	<text x="805" y="263.7" fill="#000000" font-family="Verdana" font-size="12">url_auteur</text>
	<text x="805" y="280.8" fill="#000000" font-family="Verdana" font-size="12">IP_auteur</text>
	<text x="805" y="297.8" fill="#000000" font-family="Verdana" font-size="12">date</text>
	<text x="805" y="314.8" fill="#000000" font-family="Verdana" font-size="12">contenu</text>
	<text x="805" y="331.8" fill="#000000" font-family="Verdana" font-size="12">karma</text>
	<text x="805" y="348.8" fill="#000000" font-family="Verdana" font-size="12">approuvé</text>
	<text x="805" y="365.8" fill="#000000" font-family="Verdana" font-size="12">agent_utilisateur</text>
	<text x="805" y="382.8" fill="#000000" font-family="Verdana" font-size="12">type</text>
</g>

<!-- Entity Lien -->
<g id="entity-Lien">
	<g id="frame-Lien">
		<rect x="101" y="652" width="144" height="25" fill="#f4a582" stroke="#f4a582" stroke-width="0"/>
		<rect x="101" y="677.0" width="144" height="229" fill="#fddbc7" stroke="#fddbc7" stroke-width="0"/>
		<rect x="101" y="652" width="144" height="254" fill="none" stroke="#d6604d" stroke-width="2"/>
		<line x1="101" y1="677" x2="245" y2="677" stroke="#d6604d" stroke-width="1"/>
	</g>
	<text x="160" y="669.7" fill="#000000" font-family="Verdana" font-size="12">Lien</text>
	<text x="106" y="694.7" fill="#000000" font-family="Verdana" font-size="12">id_lien</text>
	<line x1="106" y1="697" x2="147" y2="697" stroke="#000000" stroke-width="1"/>
	<text x="106" y="711.7" fill="#000000" font-family="Verdana" font-size="12">url</text>
	<text x="106" y="728.7" fill="#000000" font-family="Verdana" font-size="12">nom</text>
	<text x="106" y="745.7" fill="#000000" font-family="Verdana" font-size="12">image</text>
	<text x="106" y="762.7" fill="#000000" font-family="Verdana" font-size="12">cible</text>
	<text x="106" y="779.8" fill="#000000" font-family="Verdana" font-size="12">description</text>
	<text x="106" y="796.8" fill="#000000" font-family="Verdana" font-size="12">visibilité</text>
	<text x="106" y="813.8" fill="#000000" font-family="Verdana" font-size="12">propriétaire</text>
	<text x="106" y="830.8" fill="#000000" font-family="Verdana" font-size="12">note</text>
	<text x="106" y="847.8" fill="#000000" font-family="Verdana" font-size="12">date_de_mise_a_jour</text>
	<text x="106" y="864.8" fill="#000000" font-family="Verdana" font-size="12">relation</text>
	<text x="106" y="881.8" fill="#000000" font-family="Verdana" font-size="12">notes</text>
	<text x="106" y="898.8" fill="#000000" font-family="Verdana" font-size="12">rss</text>
</g>

<!-- Entity Terme -->
<g id="entity-Terme">
	<g id="frame-Terme">
		<rect x="9" y="229" width="66" height="25" fill="#f4a582" stroke="#f4a582" stroke-width="0"/>
		<rect x="9" y="254.0" width="66" height="77" fill="#fddbc7" stroke="#fddbc7" stroke-width="0"/>
		<rect x="9" y="229" width="66" height="102" fill="none" stroke="#d6604d" stroke-width="2"/>
		<line x1="9" y1="254" x2="75" y2="254" stroke="#d6604d" stroke-width="1"/>
	</g>
	<text x="22" y="246.7" fill="#000000" font-family="Verdana" font-size="12">Terme</text>
	<text x="14" y="271.7" fill="#000000" font-family="Verdana" font-size="12">id_terme</text>
	<line x1="14" y1="274" x2="69" y2="274" stroke="#000000" stroke-width="1"/>
	<text x="14" y="288.8" fill="#000000" font-family="Verdana" font-size="12">nom</text>
	<text x="14" y="305.8" fill="#000000" font-family="Verdana" font-size="12">slug</text>
	<text x="14" y="322.8" fill="#000000" font-family="Verdana" font-size="12">groupé</text>
</g>

<!-- Entity Métadonnée_Article -->
<g id="entity-Métadonnée_Article">
	<g id="frame-Métadonnée_Article">
		<rect x="277" y="737" width="150" height="25" fill="#f4a582" stroke="#f4a582" stroke-width="0"/>
		<rect x="277" y="762.0" width="150" height="59" fill="#fddbc7" stroke="#fddbc7" stroke-width="0"/>
		<rect x="277" y="737" width="150" height="84" fill="none" stroke="#d6604d" stroke-width="2"/>
		<line x1="277" y1="762" x2="427" y2="762" stroke="#d6604d" stroke-width="1"/>
	</g>
	<text x="292" y="754.7" fill="#000000" font-family="Verdana" font-size="12">Métadonnée_Article</text>
	<text x="282" y="779.8" fill="#000000" font-family="Verdana" font-size="12">id_métadonnée_article</text>
	<line x1="282" y1="782" x2="421" y2="782" stroke="#000000" stroke-width="1"/>
	<text x="282" y="796.8" fill="#000000" font-family="Verdana" font-size="12">clé</text>
	<text x="282" y="813.8" fill="#000000" font-family="Verdana" font-size="12">valeur</text>
</g>

<!-- Entity Métadonnée_Terme -->
<g id="entity-Métadonnée_Terme">
	<g id="frame-Métadonnée_Terme">
		<rect x="99" y="69" width="148" height="25" fill="#f4a582" stroke="#f4a582" stroke-width="0"/>
		<rect x="99" y="94.0" width="148" height="59" fill="#fddbc7" stroke="#fddbc7" stroke-width="0"/>
		<rect x="99" y="69" width="148" height="84" fill="none" stroke="#d6604d" stroke-width="2"/>
		<line x1="99" y1="94" x2="247" y2="94" stroke="#d6604d" stroke-width="1"/>
	</g>
	<text x="112" y="86.7" fill="#000000" font-family="Verdana" font-size="12">Métadonnée_Terme</text>
	<text x="104" y="111.8" fill="#000000" font-family="Verdana" font-size="12">id_métadonnée_terme</text>
	<line x1="104" y1="114" x2="242" y2="114" stroke="#000000" stroke-width="1"/>
	<text x="104" y="128.8" fill="#000000" font-family="Verdana" font-size="12">clé</text>
	<text x="104" y="145.8" fill="#000000" font-family="Verdana" font-size="12">valeur</text>
</g>

<!-- Entity Article -->
<g id="entity-Article">
	<g id="frame-Article">
		<rect x="411" y="347" width="166" height="25" fill="#f4a582" stroke="#f4a582" stroke-width="0"/>
		<rect x="411" y="372.0" width="166" height="331" fill="#fddbc7" stroke="#fddbc7" stroke-width="0"/>
		<rect x="411" y="347" width="166" height="356" fill="none" stroke="#d6604d" stroke-width="2"/>
		<line x1="411" y1="372" x2="577" y2="372" stroke="#d6604d" stroke-width="1"/>
	</g>
	<text x="474" y="364.7" fill="#000000" font-family="Verdana" font-size="12">Article</text>
	<text x="416" y="389.7" fill="#000000" font-family="Verdana" font-size="12">id_article</text>
	<line x1="416" y1="392" x2="472" y2="392" stroke="#000000" stroke-width="1"/>
	<text x="416" y="406.7" fill="#000000" font-family="Verdana" font-size="12">date_de_publication</text>
	<text x="416" y="423.7" fill="#000000" font-family="Verdana" font-size="12">contenu</text>
	<text x="416" y="440.7" fill="#000000" font-family="Verdana" font-size="12">titre</text>
	<text x="416" y="457.7" fill="#000000" font-family="Verdana" font-size="12">extrait</text>
	<text x="416" y="474.7" fill="#000000" font-family="Verdana" font-size="12">statut</text>
	<text x="416" y="491.7" fill="#000000" font-family="Verdana" font-size="12">statut_commentaire</text>
	<text x="416" y="508.7" fill="#000000" font-family="Verdana" font-size="12">statut_ping</text>
	<text x="416" y="525.8" fill="#000000" font-family="Verdana" font-size="12">mot_de_passe</text>
	<text x="416" y="542.8" fill="#000000" font-family="Verdana" font-size="12">slug</text>
	<text x="416" y="559.8" fill="#000000" font-family="Verdana" font-size="12">liste_url_à_ping</text>
	<text x="416" y="576.8" fill="#000000" font-family="Verdana" font-size="12">liste_url_pinguées</text>
	<text x="416" y="593.8" fill="#000000" font-family="Verdana" font-size="12">date_de_modification</text>
	<text x="416" y="610.8" fill="#000000" font-family="Verdana" font-size="12">contenu_filtre</text>
	<text x="416" y="627.8" fill="#000000" font-family="Verdana" font-size="12">identifiant_global_unique</text>
	<text x="416" y="644.8" fill="#000000" font-family="Verdana" font-size="12">ordre_menu</text>
	<text x="416" y="661.8" fill="#000000" font-family="Verdana" font-size="12">type_de_contenu</text>
	<text x="416" y="678.8" fill="#000000" font-family="Verdana" font-size="12">type_mime</text>
	<text x="416" y="695.8" fill="#000000" font-family="Verdana" font-size="12">nombre_de_commentaire</text>
</g>

<!-- Entity Taxinomie_Terme -->
<g id="entity-Taxinomie_Terme">
	<g id="frame-Taxinomie_Terme">
		<rect x="107" y="474" width="132" height="25" fill="#f4a582" stroke="#f4a582" stroke-width="0"/>
		<rect x="107" y="499.0" width="132" height="77" fill="#fddbc7" stroke="#fddbc7" stroke-width="0"/>
		<rect x="107" y="474" width="132" height="102" fill="none" stroke="#d6604d" stroke-width="2"/>
		<line x1="107" y1="499" x2="239" y2="499" stroke="#d6604d" stroke-width="1"/>
	</g>
	<text x="118" y="491.7" fill="#000000" font-family="Verdana" font-size="12">Taxinomie_Terme</text>
	<text x="112" y="516.7" fill="#000000" font-family="Verdana" font-size="12">id_taxinomie_terme</text>
	<line x1="112" y1="519" x2="234" y2="519" stroke="#000000" stroke-width="1"/>
	<text x="112" y="533.8" fill="#000000" font-family="Verdana" font-size="12">nom_taxinomie</text>
	<text x="112" y="550.8" fill="#000000" font-family="Verdana" font-size="12">description</text>
	<text x="112" y="567.8" fill="#000000" font-family="Verdana" font-size="12">nombre_contenus</text>
</g>

<!-- Entity Metadonnée_Utilisateur -->
<g id="entity-Metadonnée_Utilisateur">
	<g id="frame-Metadonnée_Utilisateur">
		<rect x="266" y="238" width="172" height="25" fill="#f4a582" stroke="#f4a582" stroke-width="0"/>
		<rect x="266" y="263.0" width="172" height="59" fill="#fddbc7" stroke="#fddbc7" stroke-width="0"/>
		<rect x="266" y="238" width="172" height="84" fill="none" stroke="#d6604d" stroke-width="2"/>
		<line x1="266" y1="263" x2="438" y2="263" stroke="#d6604d" stroke-width="1"/>
	</g>
	<text x="280" y="255.7" fill="#000000" font-family="Verdana" font-size="12">Metadonnée_Utilisateur</text>
	<text x="271" y="280.8" fill="#000000" font-family="Verdana" font-size="12">id_métadonnée_utilisateur</text>
	<line x1="271" y1="283" x2="433" y2="283" stroke="#000000" stroke-width="1"/>
	<text x="271" y="297.8" fill="#000000" font-family="Verdana" font-size="12">clé</text>
	<text x="271" y="314.8" fill="#000000" font-family="Verdana" font-size="12">valeur</text>
</g>
</svg>
